<svg id="Layer_1" height="512" viewBox="0 0 512 512" width="512" xmlns="http://www.w3.org/2000/svg" data-name="Layer 1"><path d="m384.25 424.651a23.133 23.133 0 0 1 22.95 23.14v25.409a22.8 22.8 0 0 1 -22.8 22.8h-.71a22.794 22.794 0 0 1 -22.79-22.8v-25.41a23.144 23.144 0 0 1 23.15-23.15 1.34 1.34 0 0 1 .2.011z" fill="#7ce5e9"/><path d="m390.253 456.568h-12v-34.525a13.258 13.258 0 0 0 -13.229-13.258h-94.09a25.273 25.273 0 0 1 -25.23-25.259l.01-.34 4.1-82.074 11.98.682-4.088 81.887a13.259 13.259 0 0 0 13.229 13.1h94.09a25.272 25.272 0 0 1 25.229 25.258z" fill="#d8ff33"/><path d="m475.31 306.411a3.85 3.85 0 0 1 -3.66 5.04h-215.84v-.01c1.04-.73 67.7-47.4 117.96-58.41a376.78 376.78 0 0 1 81.49-8.4z" fill="#ccd3df"/><path d="m474.22 176.311a3.858 3.858 0 0 1 -2.6 5.7c-4.77.92-12.56 2.61-22.6 5.47a368.737 368.737 0 0 0 -72.18 29.39c-73.09 39.08-120.3 93.72-121.03 94.57v.01h-.01v-184.8a3.89 3.89 0 0 1 1.3-2.89l120.73-106.8a3.852 3.852 0 0 1 5.89.98z" fill="#e2e4ed"/><path d="m455.26 244.631a376.78 376.78 0 0 0 -81.49 8.4c-50.26 11.01-116.92 57.68-117.96 58.41.73-.85 47.94-55.49 121.03-94.57a368.737 368.737 0 0 1 72.18-29.39l25.05 52.06a3.853 3.853 0 0 1 -3.67 5.52c-3.68-.2-8.83-.4-15.14-.43z" fill="#b0b5ca"/><path d="m255.8 128.761v182.69h-215.45a3.849 3.849 0 0 1 -3.57-5.28l71.69-178.84a3.856 3.856 0 0 1 3.57-2.42h139.92a3.85 3.85 0 0 1 3.84 3.85z" fill="#f4f8fc"/><path d="m66.78 306.171 71.69-178.84a3.857 3.857 0 0 1 3.57-2.421h-30a3.857 3.857 0 0 0 -3.57 2.421l-71.69 178.84a3.849 3.849 0 0 0 3.57 5.279h30a3.849 3.849 0 0 1 -3.57-5.279z" fill="#ccd3df"/><g fill="#9fa9b7"><path d="m231.012 161.89h-.289a6 6 0 0 1 0-12h.289a6 6 0 0 1 0 12z"/><path d="m208.861 161.89h-41.184a6 6 0 0 1 0-12h41.184a6 6 0 0 1 0 12z"/><path d="m146.151 161.89h-24.286a6 6 0 0 1 0-12h24.286a6 6 0 0 1 0 12z"/><path d="m231.012 203.276h-61.955a6 6 0 1 1 0-12h61.955a6 6 0 0 1 0 12z"/><path d="m147.785 203.276h-21.21a6 6 0 1 1 0-12h21.21a6 6 0 1 1 0 12z"/><path d="m104.816 203.276h-.258a6 6 0 1 1 0-12h.258a6 6 0 0 1 0 12z"/><path d="m231.438 244.661h-.426a6 6 0 0 1 0-12h.426a6 6 0 0 1 0 12z"/><path d="m209.256 244.661h-71.556a6 6 0 0 1 0-12h71.558a6 6 0 1 1 0 12z"/><path d="m115.677 244.661h-25.542a6 6 0 1 1 0-12h25.542a6 6 0 1 1 0 12z"/><path d="m231.012 286.046h-102.574a6 6 0 1 1 0-12h102.574a6 6 0 0 1 0 12z"/><path d="m107.941 286.046h-.367a6 6 0 0 1 0-12h.367a6 6 0 0 1 0 12z"/><path d="m86.8 286.046h-15.894a6 6 0 0 1 0-12h15.894a6 6 0 1 1 0 12z"/><path d="m347.735 95.917a6 6 0 0 1 -3.872-10.586l29.975-25.287a6 6 0 1 1 7.738 9.172l-29.976 25.284a5.982 5.982 0 0 1 -3.865 1.417z"/><path d="m320.8 118.642a6 6 0 0 1 -3.872-10.586l12.089-10.2a6 6 0 1 1 7.738 9.172l-12.089 10.2a5.976 5.976 0 0 1 -3.866 1.414z"/><path d="m280.642 152.515a6 6 0 0 1 -3.872-10.586l24.33-20.524a6 6 0 0 1 7.738 9.172l-24.33 20.523a5.976 5.976 0 0 1 -3.866 1.415z"/><path d="m339.952 156.366a6 6 0 0 1 -3.6-10.806c19.713-14.731 40.4-28.64 61.482-41.34a6 6 0 1 1 6.192 10.279c-20.744 12.5-41.1 26.18-60.49 40.673a5.977 5.977 0 0 1 -3.584 1.194z"/><path d="m312.041 178.289a6 6 0 0 1 -3.822-10.628c4.081-3.368 8.253-6.736 12.4-10.011a6 6 0 0 1 7.437 9.418c-4.08 3.222-8.185 6.536-12.2 9.848a5.974 5.974 0 0 1 -3.815 1.373z"/><path d="m284.629 202.061a6 6 0 0 1 -4.043-10.434c3.182-2.9 6.434-5.813 9.664-8.655a6 6 0 1 1 7.927 9.009c-3.178 2.8-6.377 5.662-9.509 8.515a5.978 5.978 0 0 1 -4.039 1.565z"/><path d="m392.409 173.323a6 6 0 0 1 -3.206-11.076c9.273-5.847 18.787-11.592 28.278-17.076a6 6 0 0 1 6 10.391c-9.357 5.406-18.737 11.071-27.88 16.836a5.978 5.978 0 0 1 -3.192.925z"/><path d="m320.343 224.183a6 6 0 0 1 -3.714-10.716q3.234-2.544 6.545-5.1c5.042-3.888 10.2-7.773 15.325-11.545 3.269-2.406 6.6-4.822 9.9-7.18 8.091-5.777 16.4-11.491 24.685-16.981a6 6 0 1 1 6.627 10c-8.173 5.413-16.361 11.047-24.339 16.743-3.255 2.325-6.541 4.707-9.765 7.079-5.055 3.72-10.138 7.549-15.11 11.383q-3.264 2.517-6.452 5.025a5.977 5.977 0 0 1 -3.702 1.292z"/><path d="m288.875 250.185a6 6 0 0 1 -3.934-10.532c5-4.34 10.123-8.68 15.224-12.9a6 6 0 1 1 7.65 9.245c-5.029 4.162-10.079 8.441-15.01 12.72a5.979 5.979 0 0 1 -3.93 1.467z"/></g></svg>