<svg width="25" height="24" viewBox="0 0 25 24" fill="none" xmlns="http://www.w3.org/2000/svg">
<path fill-rule="evenodd" clip-rule="evenodd" d="M5.5 4C5.23478 4 4.98043 4.10536 4.79289 4.29289C4.60536 4.48043 4.5 4.73478 4.5 5V19C4.5 19.2652 4.60536 19.5196 4.79289 19.7071C4.98043 19.8946 5.23478 20 5.5 20H9.5C10.0523 20 10.5 20.4477 10.5 21C10.5 21.5523 10.0523 22 9.5 22H5.5C4.70435 22 3.94129 21.6839 3.37868 21.1213C2.81607 20.5587 2.5 19.7957 2.5 19V5C2.5 4.20435 2.81607 3.44129 3.37868 2.87868C3.94129 2.31607 4.70435 2 5.5 2H9.5C10.0523 2 10.5 2.44772 10.5 3C10.5 3.55228 10.0523 4 9.5 4H5.5Z" fill="white"/>
<path fill-rule="evenodd" clip-rule="evenodd" d="M15.7929 6.29289C16.1834 5.90237 16.8166 5.90237 17.2071 6.29289L22.2071 11.2929C22.5976 11.6834 22.5976 12.3166 22.2071 12.7071L17.2071 17.7071C16.8166 18.0976 16.1834 18.0976 15.7929 17.7071C15.4024 17.3166 15.4024 16.6834 15.7929 16.2929L20.0858 12L15.7929 7.70711C15.4024 7.31658 15.4024 6.68342 15.7929 6.29289Z" fill="white"/>
<path fill-rule="evenodd" clip-rule="evenodd" d="M8.5 12C8.5 11.4477 8.94772 11 9.5 11H21.5C22.0523 11 22.5 11.4477 22.5 12C22.5 12.5523 22.0523 13 21.5 13H9.5C8.94772 13 8.5 12.5523 8.5 12Z" fill="white"/>
</svg>
